<?xml version="1.0" encoding="utf-8" standalone="no"?>
<!DOCTYPE svg PUBLIC "-//W3C//DTD SVG 1.1//EN"
  "http://www.w3.org/Graphics/SVG/1.1/DTD/svg11.dtd">
<!-- Created with matplotlib (https://matplotlib.org/) -->
<svg height="345.6pt" version="1.1" viewBox="0 0 460.8 345.6" width="460.8pt" xmlns="http://www.w3.org/2000/svg" xmlns:xlink="http://www.w3.org/1999/xlink">
 <metadata>
  <rdf:RDF xmlns:cc="http://creativecommons.org/ns#" xmlns:dc="http://purl.org/dc/elements/1.1/" xmlns:rdf="http://www.w3.org/1999/02/22-rdf-syntax-ns#">
   <cc:Work>
    <dc:type rdf:resource="http://purl.org/dc/dcmitype/StillImage"/>
    <dc:date>2021-01-30T11:40:06.692560</dc:date>
    <dc:format>image/svg+xml</dc:format>
    <dc:creator>
     <cc:Agent>
      <dc:title>Matplotlib v3.3.3, https://matplotlib.org/</dc:title>
     </cc:Agent>
    </dc:creator>
   </cc:Work>
  </rdf:RDF>
 </metadata>
 <defs>
  <style type="text/css">*{stroke-linecap:butt;stroke-linejoin:round;}</style>
 </defs>
 <g id="figure_1">
  <g id="patch_1">
   <path d="M 0 345.6 
L 460.8 345.6 
L 460.8 0 
L 0 0 
z
" style="fill:#ffffff;"/>
  </g>
  <g id="axes_1">
   <g id="patch_2">
    <path d="M 57.6 307.584 
L 414.72 307.584 
L 414.72 41.472 
L 57.6 41.472 
z
" style="fill:#ffffff;"/>
   </g>
   <g id="matplotlib.axis_1">
    <g id="xtick_1">
     <g id="line2d_1">
      <defs>
       <path d="M 0 0 
L 0 -3.5 
" id="mb3c027d504" style="stroke:#000000;stroke-width:0.8;"/>
      </defs>
      <g>
       <use style="stroke:#000000;stroke-width:0.8;" x="73.832727" xlink:href="#mb3c027d504" y="41.472"/>
      </g>
     </g>
     <g id="text_1">
      <!-- 0 -->
      <g transform="translate(70.651477 32.392313)scale(0.1 -0.1)">
       <defs>
        <path d="M 31.78125 66.40625 
Q 24.171875 66.40625 20.328125 58.90625 
Q 16.5 51.421875 16.5 36.375 
Q 16.5 21.390625 20.328125 13.890625 
Q 24.171875 6.390625 31.78125 6.390625 
Q 39.453125 6.390625 43.28125 13.890625 
Q 47.125 21.390625 47.125 36.375 
Q 47.125 51.421875 43.28125 58.90625 
Q 39.453125 66.40625 31.78125 66.40625 
z
M 31.78125 74.21875 
Q 44.046875 74.21875 50.515625 64.515625 
Q 56.984375 54.828125 56.984375 36.375 
Q 56.984375 17.96875 50.515625 8.265625 
Q 44.046875 -1.421875 31.78125 -1.421875 
Q 19.53125 -1.421875 13.0625 8.265625 
Q 6.59375 17.96875 6.59375 36.375 
Q 6.59375 54.828125 13.0625 64.515625 
Q 19.53125 74.21875 31.78125 74.21875 
z
" id="DejaVuSans-48"/>
       </defs>
       <use xlink:href="#DejaVuSans-48"/>
      </g>
     </g>
    </g>
    <g id="xtick_2">
     <g id="line2d_2">
      <g>
       <use style="stroke:#000000;stroke-width:0.8;" x="106.363243" xlink:href="#mb3c027d504" y="41.472"/>
      </g>
     </g>
     <g id="text_2">
      <!-- 50 -->
      <g transform="translate(100.000743 32.392313)scale(0.1 -0.1)">
       <defs>
        <path d="M 10.796875 72.90625 
L 49.515625 72.90625 
L 49.515625 64.59375 
L 19.828125 64.59375 
L 19.828125 46.734375 
Q 21.96875 47.46875 24.109375 47.828125 
Q 26.265625 48.1875 28.421875 48.1875 
Q 40.625 48.1875 47.75 41.5 
Q 54.890625 34.8125 54.890625 23.390625 
Q 54.890625 11.625 47.5625 5.09375 
Q 40.234375 -1.421875 26.90625 -1.421875 
Q 22.3125 -1.421875 17.546875 -0.640625 
Q 12.796875 0.140625 7.71875 1.703125 
L 7.71875 11.625 
Q 12.109375 9.234375 16.796875 8.0625 
Q 21.484375 6.890625 26.703125 6.890625 
Q 35.15625 6.890625 40.078125 11.328125 
Q 45.015625 15.765625 45.015625 23.390625 
Q 45.015625 31 40.078125 35.4375 
Q 35.15625 39.890625 26.703125 39.890625 
Q 22.75 39.890625 18.8125 39.015625 
Q 14.890625 38.140625 10.796875 36.28125 
z
" id="DejaVuSans-53"/>
       </defs>
       <use xlink:href="#DejaVuSans-53"/>
       <use x="63.623047" xlink:href="#DejaVuSans-48"/>
      </g>
     </g>
    </g>
    <g id="xtick_3">
     <g id="line2d_3">
      <g>
       <use style="stroke:#000000;stroke-width:0.8;" x="138.893758" xlink:href="#mb3c027d504" y="41.472"/>
      </g>
     </g>
     <g id="text_3">
      <!-- 100 -->
      <g transform="translate(129.350008 32.392313)scale(0.1 -0.1)">
       <defs>
        <path d="M 12.40625 8.296875 
L 28.515625 8.296875 
L 28.515625 63.921875 
L 10.984375 60.40625 
L 10.984375 69.390625 
L 28.421875 72.90625 
L 38.28125 72.90625 
L 38.28125 8.296875 
L 54.390625 8.296875 
L 54.390625 0 
L 12.40625 0 
z
" id="DejaVuSans-49"/>
       </defs>
       <use xlink:href="#DejaVuSans-49"/>
       <use x="63.623047" xlink:href="#DejaVuSans-48"/>
       <use x="127.246094" xlink:href="#DejaVuSans-48"/>
      </g>
     </g>
    </g>
    <g id="xtick_4">
     <g id="line2d_4">
      <g>
       <use style="stroke:#000000;stroke-width:0.8;" x="171.424274" xlink:href="#mb3c027d504" y="41.472"/>
      </g>
     </g>
     <g id="text_4">
      <!-- 150 -->
      <g transform="translate(161.880524 32.392313)scale(0.1 -0.1)">
       <use xlink:href="#DejaVuSans-49"/>
       <use x="63.623047" xlink:href="#DejaVuSans-53"/>
       <use x="127.246094" xlink:href="#DejaVuSans-48"/>
      </g>
     </g>
    </g>
    <g id="xtick_5">
     <g id="line2d_5">
      <g>
       <use style="stroke:#000000;stroke-width:0.8;" x="203.95479" xlink:href="#mb3c027d504" y="41.472"/>
      </g>
     </g>
     <g id="text_5">
      <!-- 200 -->
      <g transform="translate(194.41104 32.392313)scale(0.1 -0.1)">
       <defs>
        <path d="M 19.1875 8.296875 
L 53.609375 8.296875 
L 53.609375 0 
L 7.328125 0 
L 7.328125 8.296875 
Q 12.9375 14.109375 22.625 23.890625 
Q 32.328125 33.6875 34.8125 36.53125 
Q 39.546875 41.84375 41.421875 45.53125 
Q 43.3125 49.21875 43.3125 52.78125 
Q 43.3125 58.59375 39.234375 62.25 
Q 35.15625 65.921875 28.609375 65.921875 
Q 23.96875 65.921875 18.8125 64.3125 
Q 13.671875 62.703125 7.8125 59.421875 
L 7.8125 69.390625 
Q 13.765625 71.78125 18.9375 73 
Q 24.125 74.21875 28.421875 74.21875 
Q 39.75 74.21875 46.484375 68.546875 
Q 53.21875 62.890625 53.21875 53.421875 
Q 53.21875 48.921875 51.53125 44.890625 
Q 49.859375 40.875 45.40625 35.40625 
Q 44.1875 33.984375 37.640625 27.21875 
Q 31.109375 20.453125 19.1875 8.296875 
z
" id="DejaVuSans-50"/>
       </defs>
       <use xlink:href="#DejaVuSans-50"/>
       <use x="63.623047" xlink:href="#DejaVuSans-48"/>
       <use x="127.246094" xlink:href="#DejaVuSans-48"/>
      </g>
     </g>
    </g>
    <g id="xtick_6">
     <g id="line2d_6">
      <g>
       <use style="stroke:#000000;stroke-width:0.8;" x="236.485305" xlink:href="#mb3c027d504" y="41.472"/>
      </g>
     </g>
     <g id="text_6">
      <!-- 250 -->
      <g transform="translate(226.941555 32.392313)scale(0.1 -0.1)">
       <use xlink:href="#DejaVuSans-50"/>
       <use x="63.623047" xlink:href="#DejaVuSans-53"/>
       <use x="127.246094" xlink:href="#DejaVuSans-48"/>
      </g>
     </g>
    </g>
    <g id="xtick_7">
     <g id="line2d_7">
      <g>
       <use style="stroke:#000000;stroke-width:0.8;" x="269.015821" xlink:href="#mb3c027d504" y="41.472"/>
      </g>
     </g>
     <g id="text_7">
      <!-- 300 -->
      <g transform="translate(259.472071 32.392313)scale(0.1 -0.1)">
       <defs>
        <path d="M 40.578125 39.3125 
Q 47.65625 37.796875 51.625 33 
Q 55.609375 28.21875 55.609375 21.1875 
Q 55.609375 10.40625 48.1875 4.484375 
Q 40.765625 -1.421875 27.09375 -1.421875 
Q 22.515625 -1.421875 17.65625 -0.515625 
Q 12.796875 0.390625 7.625 2.203125 
L 7.625 11.71875 
Q 11.71875 9.328125 16.59375 8.109375 
Q 21.484375 6.890625 26.8125 6.890625 
Q 36.078125 6.890625 40.9375 10.546875 
Q 45.796875 14.203125 45.796875 21.1875 
Q 45.796875 27.640625 41.28125 31.265625 
Q 36.765625 34.90625 28.71875 34.90625 
L 20.21875 34.90625 
L 20.21875 43.015625 
L 29.109375 43.015625 
Q 36.375 43.015625 40.234375 45.921875 
Q 44.09375 48.828125 44.09375 54.296875 
Q 44.09375 59.90625 40.109375 62.90625 
Q 36.140625 65.921875 28.71875 65.921875 
Q 24.65625 65.921875 20.015625 65.03125 
Q 15.375 64.15625 9.8125 62.3125 
L 9.8125 71.09375 
Q 15.4375 72.65625 20.34375 73.4375 
Q 25.25 74.21875 29.59375 74.21875 
Q 40.828125 74.21875 47.359375 69.109375 
Q 53.90625 64.015625 53.90625 55.328125 
Q 53.90625 49.265625 50.4375 45.09375 
Q 46.96875 40.921875 40.578125 39.3125 
z
" id="DejaVuSans-51"/>
       </defs>
       <use xlink:href="#DejaVuSans-51"/>
       <use x="63.623047" xlink:href="#DejaVuSans-48"/>
       <use x="127.246094" xlink:href="#DejaVuSans-48"/>
      </g>
     </g>
    </g>
    <g id="xtick_8">
     <g id="line2d_8">
      <g>
       <use style="stroke:#000000;stroke-width:0.8;" x="301.546336" xlink:href="#mb3c027d504" y="41.472"/>
      </g>
     </g>
     <g id="text_8">
      <!-- 350 -->
      <g transform="translate(292.002586 32.392313)scale(0.1 -0.1)">
       <use xlink:href="#DejaVuSans-51"/>
       <use x="63.623047" xlink:href="#DejaVuSans-53"/>
       <use x="127.246094" xlink:href="#DejaVuSans-48"/>
      </g>
     </g>
    </g>
    <g id="xtick_9">
     <g id="line2d_9">
      <g>
       <use style="stroke:#000000;stroke-width:0.8;" x="334.076852" xlink:href="#mb3c027d504" y="41.472"/>
      </g>
     </g>
     <g id="text_9">
      <!-- 400 -->
      <g transform="translate(324.533102 32.392313)scale(0.1 -0.1)">
       <defs>
        <path d="M 37.796875 64.3125 
L 12.890625 25.390625 
L 37.796875 25.390625 
z
M 35.203125 72.90625 
L 47.609375 72.90625 
L 47.609375 25.390625 
L 58.015625 25.390625 
L 58.015625 17.1875 
L 47.609375 17.1875 
L 47.609375 0 
L 37.796875 0 
L 37.796875 17.1875 
L 4.890625 17.1875 
L 4.890625 26.703125 
z
" id="DejaVuSans-52"/>
       </defs>
       <use xlink:href="#DejaVuSans-52"/>
       <use x="63.623047" xlink:href="#DejaVuSans-48"/>
       <use x="127.246094" xlink:href="#DejaVuSans-48"/>
      </g>
     </g>
    </g>
    <g id="xtick_10">
     <g id="line2d_10">
      <g>
       <use style="stroke:#000000;stroke-width:0.8;" x="366.607367" xlink:href="#mb3c027d504" y="41.472"/>
      </g>
     </g>
     <g id="text_10">
      <!-- 450 -->
      <g transform="translate(357.063617 32.392313)scale(0.1 -0.1)">
       <use xlink:href="#DejaVuSans-52"/>
       <use x="63.623047" xlink:href="#DejaVuSans-53"/>
       <use x="127.246094" xlink:href="#DejaVuSans-48"/>
      </g>
     </g>
    </g>
    <g id="xtick_11">
     <g id="line2d_11">
      <g>
       <use style="stroke:#000000;stroke-width:0.8;" x="399.137883" xlink:href="#mb3c027d504" y="41.472"/>
      </g>
     </g>
     <g id="text_11">
      <!-- 500 -->
      <g transform="translate(389.594133 32.392313)scale(0.1 -0.1)">
       <use xlink:href="#DejaVuSans-53"/>
       <use x="63.623047" xlink:href="#DejaVuSans-48"/>
       <use x="127.246094" xlink:href="#DejaVuSans-48"/>
      </g>
     </g>
    </g>
   </g>
   <g id="matplotlib.axis_2">
    <g id="ytick_1">
     <g id="line2d_12">
      <defs>
       <path d="M 0 0 
L -3.5 0 
" id="m9ffe0c0973" style="stroke:#000000;stroke-width:0.8;"/>
      </defs>
      <g>
       <use style="stroke:#000000;stroke-width:0.8;" x="57.6" xlink:href="#m9ffe0c0973" y="307.108611"/>
      </g>
     </g>
     <g id="text_12">
      <!-- −240 -->
      <g transform="translate(23.132812 310.90783)scale(0.1 -0.1)">
       <defs>
        <path d="M 10.59375 35.5 
L 73.1875 35.5 
L 73.1875 27.203125 
L 10.59375 27.203125 
z
" id="DejaVuSans-8722"/>
       </defs>
       <use xlink:href="#DejaVuSans-8722"/>
       <use x="83.789062" xlink:href="#DejaVuSans-50"/>
       <use x="147.412109" xlink:href="#DejaVuSans-52"/>
       <use x="211.035156" xlink:href="#DejaVuSans-48"/>
      </g>
     </g>
    </g>
    <g id="ytick_2">
     <g id="line2d_13">
      <g>
       <use style="stroke:#000000;stroke-width:0.8;" x="57.6" xlink:href="#m9ffe0c0973" y="285.980227"/>
      </g>
     </g>
     <g id="text_13">
      <!-- −220 -->
      <g transform="translate(23.132812 289.779446)scale(0.1 -0.1)">
       <use xlink:href="#DejaVuSans-8722"/>
       <use x="83.789062" xlink:href="#DejaVuSans-50"/>
       <use x="147.412109" xlink:href="#DejaVuSans-50"/>
       <use x="211.035156" xlink:href="#DejaVuSans-48"/>
      </g>
     </g>
    </g>
    <g id="ytick_3">
     <g id="line2d_14">
      <g>
       <use style="stroke:#000000;stroke-width:0.8;" x="57.6" xlink:href="#m9ffe0c0973" y="264.851843"/>
      </g>
     </g>
     <g id="text_14">
      <!-- −200 -->
      <g transform="translate(23.132812 268.651062)scale(0.1 -0.1)">
       <use xlink:href="#DejaVuSans-8722"/>
       <use x="83.789062" xlink:href="#DejaVuSans-50"/>
       <use x="147.412109" xlink:href="#DejaVuSans-48"/>
       <use x="211.035156" xlink:href="#DejaVuSans-48"/>
      </g>
     </g>
    </g>
    <g id="ytick_4">
     <g id="line2d_15">
      <g>
       <use style="stroke:#000000;stroke-width:0.8;" x="57.6" xlink:href="#m9ffe0c0973" y="243.723459"/>
      </g>
     </g>
     <g id="text_15">
      <!-- −180 -->
      <g transform="translate(23.132812 247.522677)scale(0.1 -0.1)">
       <defs>
        <path d="M 31.78125 34.625 
Q 24.75 34.625 20.71875 30.859375 
Q 16.703125 27.09375 16.703125 20.515625 
Q 16.703125 13.921875 20.71875 10.15625 
Q 24.75 6.390625 31.78125 6.390625 
Q 38.8125 6.390625 42.859375 10.171875 
Q 46.921875 13.96875 46.921875 20.515625 
Q 46.921875 27.09375 42.890625 30.859375 
Q 38.875 34.625 31.78125 34.625 
z
M 21.921875 38.8125 
Q 15.578125 40.375 12.03125 44.71875 
Q 8.5 49.078125 8.5 55.328125 
Q 8.5 64.0625 14.71875 69.140625 
Q 20.953125 74.21875 31.78125 74.21875 
Q 42.671875 74.21875 48.875 69.140625 
Q 55.078125 64.0625 55.078125 55.328125 
Q 55.078125 49.078125 51.53125 44.71875 
Q 48 40.375 41.703125 38.8125 
Q 48.828125 37.15625 52.796875 32.3125 
Q 56.78125 27.484375 56.78125 20.515625 
Q 56.78125 9.90625 50.3125 4.234375 
Q 43.84375 -1.421875 31.78125 -1.421875 
Q 19.734375 -1.421875 13.25 4.234375 
Q 6.78125 9.90625 6.78125 20.515625 
Q 6.78125 27.484375 10.78125 32.3125 
Q 14.796875 37.15625 21.921875 38.8125 
z
M 18.3125 54.390625 
Q 18.3125 48.734375 21.84375 45.5625 
Q 25.390625 42.390625 31.78125 42.390625 
Q 38.140625 42.390625 41.71875 45.5625 
Q 45.3125 48.734375 45.3125 54.390625 
Q 45.3125 60.0625 41.71875 63.234375 
Q 38.140625 66.40625 31.78125 66.40625 
Q 25.390625 66.40625 21.84375 63.234375 
Q 18.3125 60.0625 18.3125 54.390625 
z
" id="DejaVuSans-56"/>
       </defs>
       <use xlink:href="#DejaVuSans-8722"/>
       <use x="83.789062" xlink:href="#DejaVuSans-49"/>
       <use x="147.412109" xlink:href="#DejaVuSans-56"/>
       <use x="211.035156" xlink:href="#DejaVuSans-48"/>
      </g>
     </g>
    </g>
    <g id="ytick_5">
     <g id="line2d_16">
      <g>
       <use style="stroke:#000000;stroke-width:0.8;" x="57.6" xlink:href="#m9ffe0c0973" y="222.595074"/>
      </g>
     </g>
     <g id="text_16">
      <!-- −160 -->
      <g transform="translate(23.132812 226.394293)scale(0.1 -0.1)">
       <defs>
        <path d="M 33.015625 40.375 
Q 26.375 40.375 22.484375 35.828125 
Q 18.609375 31.296875 18.609375 23.390625 
Q 18.609375 15.53125 22.484375 10.953125 
Q 26.375 6.390625 33.015625 6.390625 
Q 39.65625 6.390625 43.53125 10.953125 
Q 47.40625 15.53125 47.40625 23.390625 
Q 47.40625 31.296875 43.53125 35.828125 
Q 39.65625 40.375 33.015625 40.375 
z
M 52.59375 71.296875 
L 52.59375 62.3125 
Q 48.875 64.0625 45.09375 64.984375 
Q 41.3125 65.921875 37.59375 65.921875 
Q 27.828125 65.921875 22.671875 59.328125 
Q 17.53125 52.734375 16.796875 39.40625 
Q 19.671875 43.65625 24.015625 45.921875 
Q 28.375 48.1875 33.59375 48.1875 
Q 44.578125 48.1875 50.953125 41.515625 
Q 57.328125 34.859375 57.328125 23.390625 
Q 57.328125 12.15625 50.6875 5.359375 
Q 44.046875 -1.421875 33.015625 -1.421875 
Q 20.359375 -1.421875 13.671875 8.265625 
Q 6.984375 17.96875 6.984375 36.375 
Q 6.984375 53.65625 15.1875 63.9375 
Q 23.390625 74.21875 37.203125 74.21875 
Q 40.921875 74.21875 44.703125 73.484375 
Q 48.484375 72.75 52.59375 71.296875 
z
" id="DejaVuSans-54"/>
       </defs>
       <use xlink:href="#DejaVuSans-8722"/>
       <use x="83.789062" xlink:href="#DejaVuSans-49"/>
       <use x="147.412109" xlink:href="#DejaVuSans-54"/>
       <use x="211.035156" xlink:href="#DejaVuSans-48"/>
      </g>
     </g>
    </g>
    <g id="ytick_6">
     <g id="line2d_17">
      <g>
       <use style="stroke:#000000;stroke-width:0.8;" x="57.6" xlink:href="#m9ffe0c0973" y="201.46669"/>
      </g>
     </g>
     <g id="text_17">
      <!-- −140 -->
      <g transform="translate(23.132812 205.265909)scale(0.1 -0.1)">
       <use xlink:href="#DejaVuSans-8722"/>
       <use x="83.789062" xlink:href="#DejaVuSans-49"/>
       <use x="147.412109" xlink:href="#DejaVuSans-52"/>
       <use x="211.035156" xlink:href="#DejaVuSans-48"/>
      </g>
     </g>
    </g>
    <g id="ytick_7">
     <g id="line2d_18">
      <g>
       <use style="stroke:#000000;stroke-width:0.8;" x="57.6" xlink:href="#m9ffe0c0973" y="180.338306"/>
      </g>
     </g>
     <g id="text_18">
      <!-- −120 -->
      <g transform="translate(23.132812 184.137524)scale(0.1 -0.1)">
       <use xlink:href="#DejaVuSans-8722"/>
       <use x="83.789062" xlink:href="#DejaVuSans-49"/>
       <use x="147.412109" xlink:href="#DejaVuSans-50"/>
       <use x="211.035156" xlink:href="#DejaVuSans-48"/>
      </g>
     </g>
    </g>
    <g id="ytick_8">
     <g id="line2d_19">
      <g>
       <use style="stroke:#000000;stroke-width:0.8;" x="57.6" xlink:href="#m9ffe0c0973" y="159.209921"/>
      </g>
     </g>
     <g id="text_19">
      <!-- −100 -->
      <g transform="translate(23.132812 163.00914)scale(0.1 -0.1)">
       <use xlink:href="#DejaVuSans-8722"/>
       <use x="83.789062" xlink:href="#DejaVuSans-49"/>
       <use x="147.412109" xlink:href="#DejaVuSans-48"/>
       <use x="211.035156" xlink:href="#DejaVuSans-48"/>
      </g>
     </g>
    </g>
    <g id="ytick_9">
     <g id="line2d_20">
      <g>
       <use style="stroke:#000000;stroke-width:0.8;" x="57.6" xlink:href="#m9ffe0c0973" y="138.081537"/>
      </g>
     </g>
     <g id="text_20">
      <!-- −80 -->
      <g transform="translate(29.495313 141.880756)scale(0.1 -0.1)">
       <use xlink:href="#DejaVuSans-8722"/>
       <use x="83.789062" xlink:href="#DejaVuSans-56"/>
       <use x="147.412109" xlink:href="#DejaVuSans-48"/>
      </g>
     </g>
    </g>
    <g id="ytick_10">
     <g id="line2d_21">
      <g>
       <use style="stroke:#000000;stroke-width:0.8;" x="57.6" xlink:href="#m9ffe0c0973" y="116.953153"/>
      </g>
     </g>
     <g id="text_21">
      <!-- −60 -->
      <g transform="translate(29.495313 120.752372)scale(0.1 -0.1)">
       <use xlink:href="#DejaVuSans-8722"/>
       <use x="83.789062" xlink:href="#DejaVuSans-54"/>
       <use x="147.412109" xlink:href="#DejaVuSans-48"/>
      </g>
     </g>
    </g>
    <g id="ytick_11">
     <g id="line2d_22">
      <g>
       <use style="stroke:#000000;stroke-width:0.8;" x="57.6" xlink:href="#m9ffe0c0973" y="95.824769"/>
      </g>
     </g>
     <g id="text_22">
      <!-- −40 -->
      <g transform="translate(29.495313 99.623987)scale(0.1 -0.1)">
       <use xlink:href="#DejaVuSans-8722"/>
       <use x="83.789062" xlink:href="#DejaVuSans-52"/>
       <use x="147.412109" xlink:href="#DejaVuSans-48"/>
      </g>
     </g>
    </g>
    <g id="ytick_12">
     <g id="line2d_23">
      <g>
       <use style="stroke:#000000;stroke-width:0.8;" x="57.6" xlink:href="#m9ffe0c0973" y="74.696384"/>
      </g>
     </g>
     <g id="text_23">
      <!-- −20 -->
      <g transform="translate(29.495313 78.495603)scale(0.1 -0.1)">
       <use xlink:href="#DejaVuSans-8722"/>
       <use x="83.789062" xlink:href="#DejaVuSans-50"/>
       <use x="147.412109" xlink:href="#DejaVuSans-48"/>
      </g>
     </g>
    </g>
    <g id="ytick_13">
     <g id="line2d_24">
      <g>
       <use style="stroke:#000000;stroke-width:0.8;" x="57.6" xlink:href="#m9ffe0c0973" y="53.568"/>
      </g>
     </g>
     <g id="text_24">
      <!-- 0 -->
      <g transform="translate(44.2375 57.367219)scale(0.1 -0.1)">
       <use xlink:href="#DejaVuSans-48"/>
      </g>
     </g>
    </g>
    <g id="text_25">
     <!-- Score -->
     <g transform="translate(17.053125 188.530344)rotate(-90)scale(0.1 -0.1)">
      <defs>
       <path d="M 53.515625 70.515625 
L 53.515625 60.890625 
Q 47.90625 63.578125 42.921875 64.890625 
Q 37.9375 66.21875 33.296875 66.21875 
Q 25.25 66.21875 20.875 63.09375 
Q 16.5 59.96875 16.5 54.203125 
Q 16.5 49.359375 19.40625 46.890625 
Q 22.3125 44.4375 30.421875 42.921875 
L 36.375 41.703125 
Q 47.40625 39.59375 52.65625 34.296875 
Q 57.90625 29 57.90625 20.125 
Q 57.90625 9.515625 50.796875 4.046875 
Q 43.703125 -1.421875 29.984375 -1.421875 
Q 24.8125 -1.421875 18.96875 -0.25 
Q 13.140625 0.921875 6.890625 3.21875 
L 6.890625 13.375 
Q 12.890625 10.015625 18.65625 8.296875 
Q 24.421875 6.59375 29.984375 6.59375 
Q 38.421875 6.59375 43.015625 9.90625 
Q 47.609375 13.234375 47.609375 19.390625 
Q 47.609375 24.75 44.3125 27.78125 
Q 41.015625 30.8125 33.5 32.328125 
L 27.484375 33.5 
Q 16.453125 35.6875 11.515625 40.375 
Q 6.59375 45.0625 6.59375 53.421875 
Q 6.59375 63.09375 13.40625 68.65625 
Q 20.21875 74.21875 32.171875 74.21875 
Q 37.3125 74.21875 42.625 73.28125 
Q 47.953125 72.359375 53.515625 70.515625 
z
" id="DejaVuSans-83"/>
       <path d="M 48.78125 52.59375 
L 48.78125 44.1875 
Q 44.96875 46.296875 41.140625 47.34375 
Q 37.3125 48.390625 33.40625 48.390625 
Q 24.65625 48.390625 19.8125 42.84375 
Q 14.984375 37.3125 14.984375 27.296875 
Q 14.984375 17.28125 19.8125 11.734375 
Q 24.65625 6.203125 33.40625 6.203125 
Q 37.3125 6.203125 41.140625 7.25 
Q 44.96875 8.296875 48.78125 10.40625 
L 48.78125 2.09375 
Q 45.015625 0.34375 40.984375 -0.53125 
Q 36.96875 -1.421875 32.421875 -1.421875 
Q 20.0625 -1.421875 12.78125 6.34375 
Q 5.515625 14.109375 5.515625 27.296875 
Q 5.515625 40.671875 12.859375 48.328125 
Q 20.21875 56 33.015625 56 
Q 37.15625 56 41.109375 55.140625 
Q 45.0625 54.296875 48.78125 52.59375 
z
" id="DejaVuSans-99"/>
       <path d="M 30.609375 48.390625 
Q 23.390625 48.390625 19.1875 42.75 
Q 14.984375 37.109375 14.984375 27.296875 
Q 14.984375 17.484375 19.15625 11.84375 
Q 23.34375 6.203125 30.609375 6.203125 
Q 37.796875 6.203125 41.984375 11.859375 
Q 46.1875 17.53125 46.1875 27.296875 
Q 46.1875 37.015625 41.984375 42.703125 
Q 37.796875 48.390625 30.609375 48.390625 
z
M 30.609375 56 
Q 42.328125 56 49.015625 48.375 
Q 55.71875 40.765625 55.71875 27.296875 
Q 55.71875 13.875 49.015625 6.21875 
Q 42.328125 -1.421875 30.609375 -1.421875 
Q 18.84375 -1.421875 12.171875 6.21875 
Q 5.515625 13.875 5.515625 27.296875 
Q 5.515625 40.765625 12.171875 48.375 
Q 18.84375 56 30.609375 56 
z
" id="DejaVuSans-111"/>
       <path d="M 41.109375 46.296875 
Q 39.59375 47.171875 37.8125 47.578125 
Q 36.03125 48 33.890625 48 
Q 26.265625 48 22.1875 43.046875 
Q 18.109375 38.09375 18.109375 28.8125 
L 18.109375 0 
L 9.078125 0 
L 9.078125 54.6875 
L 18.109375 54.6875 
L 18.109375 46.1875 
Q 20.953125 51.171875 25.484375 53.578125 
Q 30.03125 56 36.53125 56 
Q 37.453125 56 38.578125 55.875 
Q 39.703125 55.765625 41.0625 55.515625 
z
" id="DejaVuSans-114"/>
       <path d="M 56.203125 29.59375 
L 56.203125 25.203125 
L 14.890625 25.203125 
Q 15.484375 15.921875 20.484375 11.0625 
Q 25.484375 6.203125 34.421875 6.203125 
Q 39.59375 6.203125 44.453125 7.46875 
Q 49.3125 8.734375 54.109375 11.28125 
L 54.109375 2.78125 
Q 49.265625 0.734375 44.1875 -0.34375 
Q 39.109375 -1.421875 33.890625 -1.421875 
Q 20.796875 -1.421875 13.15625 6.1875 
Q 5.515625 13.8125 5.515625 26.8125 
Q 5.515625 40.234375 12.765625 48.109375 
Q 20.015625 56 32.328125 56 
Q 43.359375 56 49.78125 48.890625 
Q 56.203125 41.796875 56.203125 29.59375 
z
M 47.21875 32.234375 
Q 47.125 39.59375 43.09375 43.984375 
Q 39.0625 48.390625 32.421875 48.390625 
Q 24.90625 48.390625 20.390625 44.140625 
Q 15.875 39.890625 15.1875 32.171875 
z
" id="DejaVuSans-101"/>
      </defs>
      <use xlink:href="#DejaVuSans-83"/>
      <use x="63.476562" xlink:href="#DejaVuSans-99"/>
      <use x="118.457031" xlink:href="#DejaVuSans-111"/>
      <use x="179.638672" xlink:href="#DejaVuSans-114"/>
      <use x="218.501953" xlink:href="#DejaVuSans-101"/>
     </g>
    </g>
   </g>
   <g id="line2d_25">
    <path clip-path="url(#pa71fbee8cf)" d="M 73.832727 53.568 
L 77.736389 53.568 
L 78.386999 54.624419 
L 79.03761 54.624419 
L 79.68822 55.680838 
L 83.591882 55.680838 
L 84.242492 56.737258 
L 85.543713 56.737258 
L 86.194323 57.793677 
L 88.796764 57.793677 
L 89.447375 58.850096 
L 91.399206 58.850096 
L 92.700426 60.962934 
L 94.652257 60.962934 
L 95.302868 62.019354 
L 107.664463 62.019354 
L 108.315074 63.075773 
L 112.218736 63.075773 
L 112.869346 64.132192 
L 115.471787 64.132192 
L 116.122398 65.188611 
L 121.97789 65.188611 
L 122.628501 66.245031 
L 126.532163 66.245031 
L 127.182773 67.30145 
L 131.737045 67.30145 
L 133.038266 69.414288 
L 133.688876 69.414288 
L 134.339486 70.470707 
L 134.990097 70.470707 
L 136.291317 72.583546 
L 136.941927 72.583546 
L 137.592538 73.639965 
L 138.243148 73.639965 
L 138.893758 74.696384 
L 140.845589 74.696384 
L 141.4962 75.752803 
L 144.098641 75.752803 
L 144.749251 76.809223 
L 148.002303 76.809223 
L 148.652913 77.865642 
L 164.267561 77.865642 
L 164.918171 78.922061 
L 168.821833 78.922061 
L 169.472443 79.97848 
L 181.834039 79.97848 
L 182.484649 81.0349 
L 187.689532 81.0349 
L 188.340142 82.091319 
L 191.593194 82.091319 
L 192.243804 83.147738 
L 196.798076 83.147738 
L 197.448686 84.204157 
L 200.051128 84.204157 
L 200.701738 85.260576 
L 205.25601 85.260576 
L 205.906621 86.316996 
L 207.207841 86.316996 
L 207.858451 87.373415 
L 208.509062 87.373415 
L 209.159672 88.429834 
L 215.665775 88.429834 
L 216.316385 89.486253 
L 216.966996 89.486253 
L 217.617606 90.542672 
L 222.171878 90.542672 
L 223.473099 92.655511 
L 230.629812 92.655511 
L 231.280423 93.71193 
L 240.388967 93.71193 
L 241.039577 94.768349 
L 241.690188 94.768349 
L 242.340798 95.824769 
L 246.24446 95.824769 
L 246.89507 96.881188 
L 249.497511 96.881188 
L 250.148122 97.937607 
L 251.449342 97.937607 
L 252.099953 98.994026 
L 260.557887 98.994026 
L 261.208497 100.050445 
L 263.810938 100.050445 
L 265.112159 102.163284 
L 268.36521 102.163284 
L 269.015821 103.219703 
L 271.618262 103.219703 
L 272.268872 104.276122 
L 281.377417 104.276122 
L 282.028027 105.332541 
L 283.329248 105.332541 
L 283.979858 106.388961 
L 285.931689 106.388961 
L 286.582299 107.44538 
L 287.232909 107.44538 
L 287.88352 108.501799 
L 290.485961 108.501799 
L 291.136571 109.558218 
L 293.739013 109.558218 
L 295.690844 112.727476 
L 296.992064 112.727476 
L 297.642674 113.783895 
L 298.293285 113.783895 
L 299.594505 115.896734 
L 306.100608 115.896734 
L 306.751219 116.953153 
L 309.35366 116.953153 
L 310.00427 118.009572 
L 313.257322 118.009572 
L 313.907932 119.065991 
L 321.064646 119.065991 
L 321.715256 120.12241 
L 328.871969 120.12241 
L 329.52258 121.17883 
L 333.426242 121.17883 
L 334.076852 122.235249 
L 335.378073 122.235249 
L 336.028683 123.291668 
L 338.631124 123.291668 
L 339.932345 125.404507 
L 343.836007 125.404507 
L 344.486617 126.460926 
L 346.438448 126.460926 
L 347.089058 127.517345 
L 347.739668 127.517345 
L 348.390279 128.573764 
L 350.34211 128.573764 
L 350.99272 129.630183 
L 352.293941 129.630183 
L 352.944551 130.686603 
L 354.896382 130.686603 
L 356.848213 133.85586 
L 364.655537 133.85586 
L 365.956757 135.968699 
L 388.077508 135.968699 
L 388.728118 137.025118 
L 394.583611 137.025118 
L 395.234221 138.081537 
L 396.535442 138.081537 
L 398.487273 141.250795 
L 398.487273 141.250795 
" style="fill:none;stroke:#1f77b4;stroke-linecap:square;stroke-width:1.5;"/>
   </g>
   <g id="line2d_26">
    <path clip-path="url(#pa71fbee8cf)" d="M 73.832727 54.624419 
L 74.483338 54.624419 
L 75.133948 55.680838 
L 76.435169 55.680838 
L 77.085779 56.737258 
L 80.989441 56.737258 
L 82.290661 58.850096 
L 82.941272 58.850096 
L 83.591882 59.906515 
L 84.242492 59.906515 
L 85.543713 62.019354 
L 86.844934 62.019354 
L 87.495544 63.075773 
L 100.50775 63.075773 
L 101.808971 65.188611 
L 111.568125 65.188611 
L 112.218736 66.245031 
L 116.773008 66.245031 
L 117.423618 67.30145 
L 118.074228 67.30145 
L 118.724839 68.357869 
L 123.929721 68.357869 
L 124.580332 69.414288 
L 128.483993 69.414288 
L 129.134604 70.470707 
L 133.038266 70.470707 
L 133.688876 71.527127 
L 142.79742 71.527127 
L 143.448031 72.583546 
L 147.351692 72.583546 
L 148.002303 73.639965 
L 148.652913 73.639965 
L 149.303523 74.696384 
L 156.460237 74.696384 
L 157.110847 75.752803 
L 159.062678 75.752803 
L 159.713288 76.809223 
L 160.363899 76.809223 
L 161.014509 77.865642 
L 166.219392 77.865642 
L 166.870002 78.922061 
L 174.026715 78.922061 
L 174.677326 79.97848 
L 177.279767 79.97848 
L 177.930377 81.0349 
L 179.231598 81.0349 
L 179.882208 82.091319 
L 194.195635 82.091319 
L 196.147466 85.260576 
L 197.448686 85.260576 
L 198.099297 86.316996 
L 202.653569 86.316996 
L 203.304179 87.373415 
L 206.557231 87.373415 
L 207.207841 88.429834 
L 209.810282 88.429834 
L 210.460893 89.486253 
L 226.07554 89.486253 
L 226.72615 90.542672 
L 227.376761 90.542672 
L 228.027371 91.599092 
L 238.437136 91.599092 
L 239.087746 92.655511 
L 243.642019 92.655511 
L 244.943239 94.768349 
L 245.59385 94.768349 
L 246.24446 95.824769 
L 248.196291 95.824769 
L 248.846901 96.881188 
L 258.606056 96.881188 
L 259.256666 97.937607 
L 267.06399 97.937607 
L 267.7146 98.994026 
L 272.268872 98.994026 
L 272.919483 100.050445 
L 274.871314 100.050445 
L 275.521924 101.106865 
L 276.823144 101.106865 
L 277.473755 102.163284 
L 286.582299 102.163284 
L 287.232909 103.219703 
L 287.88352 103.219703 
L 288.53413 104.276122 
L 303.498167 104.276122 
L 304.148778 105.332541 
L 319.763425 105.332541 
L 320.414035 106.388961 
L 323.667087 106.388961 
L 324.317697 107.44538 
L 336.028683 107.44538 
L 336.679293 108.501799 
L 343.185396 108.501799 
L 343.836007 109.558218 
L 345.137227 109.558218 
L 346.438448 111.671057 
L 349.040889 111.671057 
L 349.691499 112.727476 
L 351.64333 112.727476 
L 352.293941 113.783895 
L 352.944551 113.783895 
L 353.595161 114.840314 
L 366.607367 114.840314 
L 367.257978 115.896734 
L 373.113471 115.896734 
L 375.065302 119.065991 
L 383.523236 119.065991 
L 384.173846 120.12241 
L 385.475066 120.12241 
L 386.776287 122.235249 
L 398.487273 122.235249 
L 398.487273 122.235249 
" style="fill:none;stroke:#ff7f0e;stroke-linecap:square;stroke-width:1.5;"/>
   </g>
   <g id="line2d_27">
    <path clip-path="url(#pa71fbee8cf)" d="M 73.832727 53.568 
L 75.784558 53.568 
L 76.435169 54.624419 
L 77.085779 54.624419 
L 77.736389 55.680838 
L 78.386999 55.680838 
L 79.03761 56.737258 
L 79.68822 56.737258 
L 80.33883 57.793677 
L 82.290661 57.793677 
L 82.941272 58.850096 
L 87.495544 58.850096 
L 88.796764 60.962934 
L 90.748595 60.962934 
L 91.399206 62.019354 
L 92.700426 62.019354 
L 94.652257 65.188611 
L 95.302868 65.188611 
L 95.953478 66.245031 
L 97.254698 66.245031 
L 98.555919 68.357869 
L 99.206529 68.357869 
L 100.50775 70.470707 
L 101.808971 70.470707 
L 102.459581 71.527127 
L 104.411412 71.527127 
L 105.062022 72.583546 
L 106.363243 72.583546 
L 107.664463 74.696384 
L 108.315074 74.696384 
L 108.965684 75.752803 
L 109.616294 75.752803 
L 110.266905 76.809223 
L 112.869346 76.809223 
L 113.519956 77.865642 
L 114.821177 77.865642 
L 115.471787 78.922061 
L 116.122398 78.922061 
L 116.773008 79.97848 
L 117.423618 79.97848 
L 118.074228 81.0349 
L 118.724839 81.0349 
L 119.375449 82.091319 
L 120.67667 82.091319 
L 121.32728 83.147738 
L 125.230942 83.147738 
L 126.532163 85.260576 
L 127.182773 85.260576 
L 127.833383 86.316996 
L 129.134604 86.316996 
L 129.785214 87.373415 
L 130.435824 87.373415 
L 131.737045 89.486253 
L 134.339486 89.486253 
L 134.990097 90.542672 
L 137.592538 90.542672 
L 138.243148 91.599092 
L 140.194979 91.599092 
L 140.845589 92.655511 
L 141.4962 92.655511 
L 142.79742 94.768349 
L 143.448031 94.768349 
L 144.098641 95.824769 
L 145.399862 95.824769 
L 147.351692 98.994026 
L 149.954134 98.994026 
L 155.809627 108.501799 
L 157.110847 108.501799 
L 159.062678 111.671057 
L 161.014509 111.671057 
L 161.665119 112.727476 
L 162.31573 112.727476 
L 163.61695 114.840314 
L 164.918171 114.840314 
L 166.219392 116.953153 
L 166.870002 116.953153 
L 167.520612 118.009572 
L 169.472443 118.009572 
L 170.123053 119.065991 
L 170.773664 119.065991 
L 173.376105 123.291668 
L 175.327936 123.291668 
L 176.629156 125.404507 
L 178.580987 125.404507 
L 179.231598 126.460926 
L 182.484649 126.460926 
L 183.13526 127.517345 
L 183.78587 127.517345 
L 185.737701 130.686603 
L 186.388311 130.686603 
L 187.038921 131.743022 
L 188.990752 131.743022 
L 191.593194 135.968699 
L 192.894414 135.968699 
L 193.545025 137.025118 
L 198.099297 137.025118 
L 200.051128 140.194376 
L 200.701738 140.194376 
L 202.002959 142.307214 
L 205.906621 142.307214 
L 206.557231 143.363633 
L 207.858451 143.363633 
L 208.509062 144.420052 
L 209.159672 144.420052 
L 209.810282 145.476472 
L 210.460893 145.476472 
L 214.364555 151.814987 
L 215.015165 151.814987 
L 215.665775 152.871406 
L 216.316385 152.871406 
L 216.966996 153.927825 
L 218.268216 153.927825 
L 218.918827 154.984245 
L 219.569437 154.984245 
L 220.870658 157.097083 
L 223.473099 157.097083 
L 224.123709 158.153502 
L 224.77432 158.153502 
L 226.07554 160.266341 
L 226.72615 160.266341 
L 227.376761 161.32276 
L 228.677981 161.32276 
L 229.328592 162.379179 
L 231.280423 162.379179 
L 232.581643 164.492017 
L 233.232254 164.492017 
L 233.882864 165.548437 
L 234.533474 165.548437 
L 236.485305 168.717694 
L 237.135915 168.717694 
L 237.786526 169.774114 
L 239.087746 169.774114 
L 240.388967 171.886952 
L 242.991408 171.886952 
L 243.642019 172.943371 
L 247.54568 172.943371 
L 248.196291 173.99979 
L 248.846901 173.99979 
L 249.497511 175.05621 
L 250.148122 175.05621 
L 251.449342 177.169048 
L 252.099953 177.169048 
L 254.702394 181.394725 
L 255.353004 181.394725 
L 256.003615 182.451144 
L 257.304835 182.451144 
L 257.955445 183.507563 
L 259.256666 183.507563 
L 260.557887 185.620402 
L 261.208497 185.620402 
L 263.810938 189.846079 
L 265.112159 189.846079 
L 267.06399 193.015336 
L 267.7146 193.015336 
L 268.36521 194.071755 
L 269.015821 194.071755 
L 270.317041 196.184594 
L 273.570093 196.184594 
L 274.871314 198.297432 
L 275.521924 198.297432 
L 276.172534 199.353852 
L 277.473755 199.353852 
L 279.425586 202.523109 
L 280.726806 202.523109 
L 281.377417 203.579528 
L 282.028027 203.579528 
L 283.329248 205.692367 
L 283.979858 205.692367 
L 285.931689 208.861624 
L 288.53413 208.861624 
L 289.835351 210.974463 
L 291.136571 210.974463 
L 291.787182 212.030882 
L 293.088402 212.030882 
L 293.739013 213.087301 
L 295.690844 213.087301 
L 296.992064 215.20014 
L 297.642674 215.20014 
L 298.293285 216.256559 
L 300.245116 216.256559 
L 302.847557 220.482236 
L 304.799388 220.482236 
L 305.449998 221.538655 
L 306.751219 221.538655 
L 308.052439 223.651493 
L 308.70305 223.651493 
L 309.35366 224.707913 
L 310.00427 224.707913 
L 313.257322 229.990009 
L 313.907932 229.990009 
L 315.209153 232.102847 
L 315.859763 232.102847 
L 316.510373 233.159266 
L 320.414035 233.159266 
L 321.064646 234.215686 
L 321.715256 234.215686 
L 323.667087 237.384943 
L 324.968308 237.384943 
L 327.570749 241.61062 
L 328.221359 241.61062 
L 328.871969 242.667039 
L 329.52258 242.667039 
L 330.8238 244.779878 
L 332.125021 244.779878 
L 333.426242 246.892716 
L 334.727462 246.892716 
L 335.378073 247.949135 
L 336.679293 247.949135 
L 338.631124 251.118393 
L 339.932345 251.118393 
L 342.534786 255.34407 
L 344.486617 255.34407 
L 345.137227 256.400489 
L 347.089058 256.400489 
L 347.739668 257.456908 
L 350.99272 257.456908 
L 351.64333 258.513328 
L 353.595161 258.513328 
L 354.896382 260.626166 
L 356.848213 260.626166 
L 358.149433 262.739004 
L 358.800044 262.739004 
L 361.402485 266.964681 
L 362.703706 266.964681 
L 364.004926 269.07752 
L 365.956757 269.07752 
L 366.607367 270.133939 
L 367.257978 270.133939 
L 367.908588 271.190358 
L 368.559198 271.190358 
L 370.511029 274.359616 
L 371.16164 274.359616 
L 373.113471 277.528873 
L 378.318353 277.528873 
L 381.571405 282.810969 
L 382.222015 282.810969 
L 383.523236 284.923808 
L 384.173846 284.923808 
L 384.824456 285.980227 
L 386.776287 285.980227 
L 388.077508 288.093066 
L 389.378728 288.093066 
L 393.933001 295.488 
L 398.487273 295.488 
L 398.487273 295.488 
" style="fill:none;stroke:#2ca02c;stroke-linecap:square;stroke-width:1.5;"/>
   </g>
   <g id="line2d_28">
    <path clip-path="url(#pa71fbee8cf)" d="M 73.832727 53.568 
L 74.483338 54.624419 
L 75.133948 54.624419 
L 75.784558 55.680838 
L 80.33883 55.680838 
L 80.989441 56.737258 
L 86.194323 56.737258 
L 86.844934 57.793677 
L 89.447375 57.793677 
L 90.097985 58.850096 
L 95.953478 58.850096 
L 97.254698 60.962934 
L 98.555919 60.962934 
L 99.206529 62.019354 
L 102.459581 62.019354 
L 104.411412 65.188611 
L 105.062022 65.188611 
L 106.363243 67.30145 
L 108.965684 67.30145 
L 109.616294 68.357869 
L 110.266905 68.357869 
L 111.568125 70.470707 
L 113.519956 70.470707 
L 114.821177 72.583546 
L 119.375449 72.583546 
L 120.67667 74.696384 
L 123.279111 74.696384 
L 123.929721 75.752803 
L 127.833383 75.752803 
L 128.483993 76.809223 
L 129.785214 76.809223 
L 130.435824 77.865642 
L 136.291317 77.865642 
L 136.941927 78.922061 
L 138.893758 78.922061 
L 140.194979 81.0349 
L 144.749251 81.0349 
L 145.399862 82.091319 
L 149.303523 82.091319 
L 149.954134 83.147738 
L 155.809627 83.147738 
L 156.460237 84.204157 
L 159.713288 84.204157 
L 160.363899 85.260576 
L 163.61695 85.260576 
L 164.267561 86.316996 
L 167.520612 86.316996 
L 168.821833 88.429834 
L 170.123053 88.429834 
L 170.773664 89.486253 
L 173.376105 89.486253 
L 174.026715 90.542672 
L 174.677326 90.542672 
L 175.327936 91.599092 
L 176.629156 91.599092 
L 177.279767 92.655511 
L 177.930377 92.655511 
L 178.580987 93.71193 
L 179.882208 93.71193 
L 181.834039 96.881188 
L 183.13526 96.881188 
L 183.78587 97.937607 
L 185.737701 97.937607 
L 186.388311 98.994026 
L 187.038921 98.994026 
L 187.689532 100.050445 
L 188.340142 100.050445 
L 188.990752 101.106865 
L 192.243804 101.106865 
L 192.894414 102.163284 
L 193.545025 102.163284 
L 194.195635 103.219703 
L 196.147466 103.219703 
L 196.798076 104.276122 
L 202.002959 104.276122 
L 202.653569 105.332541 
L 203.304179 105.332541 
L 205.25601 108.501799 
L 214.364555 108.501799 
L 215.015165 109.558218 
L 217.617606 109.558218 
L 218.268216 110.614638 
L 218.918827 110.614638 
L 219.569437 111.671057 
L 220.870658 111.671057 
L 222.171878 113.783895 
L 224.123709 113.783895 
L 224.77432 114.840314 
L 228.027371 114.840314 
L 228.677981 115.896734 
L 229.328592 115.896734 
L 230.629812 118.009572 
L 232.581643 118.009572 
L 233.232254 119.065991 
L 233.882864 119.065991 
L 234.533474 120.12241 
L 236.485305 120.12241 
L 237.135915 121.17883 
L 237.786526 121.17883 
L 238.437136 122.235249 
L 241.039577 122.235249 
L 241.690188 123.291668 
L 244.943239 123.291668 
L 245.59385 124.348087 
L 254.702394 124.348087 
L 255.353004 125.404507 
L 256.003615 125.404507 
L 257.304835 127.517345 
L 257.955445 127.517345 
L 258.606056 128.573764 
L 270.317041 128.573764 
L 271.618262 130.686603 
L 272.919483 130.686603 
L 273.570093 131.743022 
L 276.172534 131.743022 
L 276.823144 132.799441 
L 279.425586 132.799441 
L 280.726806 134.912279 
L 289.835351 134.912279 
L 290.485961 135.968699 
L 291.787182 135.968699 
L 293.088402 138.081537 
L 299.594505 138.081537 
L 300.245116 139.137956 
L 302.847557 139.137956 
L 303.498167 140.194376 
L 304.148778 140.194376 
L 304.799388 141.250795 
L 305.449998 141.250795 
L 306.100608 142.307214 
L 308.052439 142.307214 
L 308.70305 143.363633 
L 315.209153 143.363633 
L 315.859763 144.420052 
L 316.510373 144.420052 
L 317.811594 146.532891 
L 318.462204 146.532891 
L 319.763425 148.645729 
L 324.317697 148.645729 
L 324.968308 149.702148 
L 327.570749 149.702148 
L 328.221359 150.758568 
L 330.8238 150.758568 
L 332.125021 152.871406 
L 334.076852 152.871406 
L 334.727462 153.927825 
L 342.534786 153.927825 
L 343.185396 154.984245 
L 348.390279 154.984245 
L 349.040889 156.040664 
L 358.149433 156.040664 
L 358.800044 157.097083 
L 361.402485 157.097083 
L 362.703706 159.209921 
L 364.004926 159.209921 
L 364.655537 160.266341 
L 367.908588 160.266341 
L 368.559198 161.32276 
L 370.511029 161.32276 
L 371.16164 162.379179 
L 381.571405 162.379179 
L 382.222015 163.435598 
L 384.824456 163.435598 
L 385.475066 164.492017 
L 393.933001 164.492017 
L 394.583611 165.548437 
L 395.234221 165.548437 
L 396.535442 167.661275 
L 398.487273 167.661275 
L 398.487273 167.661275 
" style="fill:none;stroke:#d62728;stroke-linecap:square;stroke-width:1.5;"/>
   </g>
   <g id="patch_3">
    <path d="M 57.6 307.584 
L 57.6 41.472 
" style="fill:none;stroke:#000000;stroke-linecap:square;stroke-linejoin:miter;stroke-width:0.8;"/>
   </g>
   <g id="patch_4">
    <path d="M 414.72 307.584 
L 414.72 41.472 
" style="fill:none;stroke:#000000;stroke-linecap:square;stroke-linejoin:miter;stroke-width:0.8;"/>
   </g>
   <g id="patch_5">
    <path d="M 57.6 307.584 
L 414.72 307.584 
" style="fill:none;stroke:#000000;stroke-linecap:square;stroke-linejoin:miter;stroke-width:0.8;"/>
   </g>
   <g id="patch_6">
    <path d="M 57.6 41.472 
L 414.72 41.472 
" style="fill:none;stroke:#000000;stroke-linecap:square;stroke-linejoin:miter;stroke-width:0.8;"/>
   </g>
   <g id="text_26">
    <!-- Attempt -->
    <g transform="translate(211.75875 18.793875)scale(0.12 -0.12)">
     <defs>
      <path d="M 34.1875 63.1875 
L 20.796875 26.90625 
L 47.609375 26.90625 
z
M 28.609375 72.90625 
L 39.796875 72.90625 
L 67.578125 0 
L 57.328125 0 
L 50.6875 18.703125 
L 17.828125 18.703125 
L 11.1875 0 
L 0.78125 0 
z
" id="DejaVuSans-65"/>
      <path d="M 18.3125 70.21875 
L 18.3125 54.6875 
L 36.8125 54.6875 
L 36.8125 47.703125 
L 18.3125 47.703125 
L 18.3125 18.015625 
Q 18.3125 11.328125 20.140625 9.421875 
Q 21.96875 7.515625 27.59375 7.515625 
L 36.8125 7.515625 
L 36.8125 0 
L 27.59375 0 
Q 17.1875 0 13.234375 3.875 
Q 9.28125 7.765625 9.28125 18.015625 
L 9.28125 47.703125 
L 2.6875 47.703125 
L 2.6875 54.6875 
L 9.28125 54.6875 
L 9.28125 70.21875 
z
" id="DejaVuSans-116"/>
      <path d="M 52 44.1875 
Q 55.375 50.25 60.0625 53.125 
Q 64.75 56 71.09375 56 
Q 79.640625 56 84.28125 50.015625 
Q 88.921875 44.046875 88.921875 33.015625 
L 88.921875 0 
L 79.890625 0 
L 79.890625 32.71875 
Q 79.890625 40.578125 77.09375 44.375 
Q 74.3125 48.1875 68.609375 48.1875 
Q 61.625 48.1875 57.5625 43.546875 
Q 53.515625 38.921875 53.515625 30.90625 
L 53.515625 0 
L 44.484375 0 
L 44.484375 32.71875 
Q 44.484375 40.625 41.703125 44.40625 
Q 38.921875 48.1875 33.109375 48.1875 
Q 26.21875 48.1875 22.15625 43.53125 
Q 18.109375 38.875 18.109375 30.90625 
L 18.109375 0 
L 9.078125 0 
L 9.078125 54.6875 
L 18.109375 54.6875 
L 18.109375 46.1875 
Q 21.1875 51.21875 25.484375 53.609375 
Q 29.78125 56 35.6875 56 
Q 41.65625 56 45.828125 52.96875 
Q 50 49.953125 52 44.1875 
z
" id="DejaVuSans-109"/>
      <path d="M 18.109375 8.203125 
L 18.109375 -20.796875 
L 9.078125 -20.796875 
L 9.078125 54.6875 
L 18.109375 54.6875 
L 18.109375 46.390625 
Q 20.953125 51.265625 25.265625 53.625 
Q 29.59375 56 35.59375 56 
Q 45.5625 56 51.78125 48.09375 
Q 58.015625 40.1875 58.015625 27.296875 
Q 58.015625 14.40625 51.78125 6.484375 
Q 45.5625 -1.421875 35.59375 -1.421875 
Q 29.59375 -1.421875 25.265625 0.953125 
Q 20.953125 3.328125 18.109375 8.203125 
z
M 48.6875 27.296875 
Q 48.6875 37.203125 44.609375 42.84375 
Q 40.53125 48.484375 33.40625 48.484375 
Q 26.265625 48.484375 22.1875 42.84375 
Q 18.109375 37.203125 18.109375 27.296875 
Q 18.109375 17.390625 22.1875 11.75 
Q 26.265625 6.109375 33.40625 6.109375 
Q 40.53125 6.109375 44.609375 11.75 
Q 48.6875 17.390625 48.6875 27.296875 
z
" id="DejaVuSans-112"/>
     </defs>
     <use xlink:href="#DejaVuSans-65"/>
     <use x="66.658203" xlink:href="#DejaVuSans-116"/>
     <use x="105.867188" xlink:href="#DejaVuSans-116"/>
     <use x="145.076172" xlink:href="#DejaVuSans-101"/>
     <use x="206.599609" xlink:href="#DejaVuSans-109"/>
     <use x="304.011719" xlink:href="#DejaVuSans-112"/>
     <use x="367.488281" xlink:href="#DejaVuSans-116"/>
    </g>
   </g>
   <g id="legend_1">
    <g id="patch_7">
     <path d="M 64.6 302.584 
L 150.246875 302.584 
Q 152.246875 302.584 152.246875 300.584 
L 152.246875 242.8715 
Q 152.246875 240.8715 150.246875 240.8715 
L 64.6 240.8715 
Q 62.6 240.8715 62.6 242.8715 
L 62.6 300.584 
Q 62.6 302.584 64.6 302.584 
z
" style="fill:#ffffff;opacity:0.8;stroke:#cccccc;stroke-linejoin:miter;"/>
    </g>
    <g id="line2d_29">
     <path d="M 66.6 248.969937 
L 86.6 248.969937 
" style="fill:none;stroke:#1f77b4;stroke-linecap:square;stroke-width:1.5;"/>
    </g>
    <g id="line2d_30"/>
    <g id="text_27">
     <!-- Mamdani -->
     <g transform="translate(94.6 252.469937)scale(0.1 -0.1)">
      <defs>
       <path d="M 9.8125 72.90625 
L 24.515625 72.90625 
L 43.109375 23.296875 
L 61.8125 72.90625 
L 76.515625 72.90625 
L 76.515625 0 
L 66.890625 0 
L 66.890625 64.015625 
L 48.09375 14.015625 
L 38.1875 14.015625 
L 19.390625 64.015625 
L 19.390625 0 
L 9.8125 0 
z
" id="DejaVuSans-77"/>
       <path d="M 34.28125 27.484375 
Q 23.390625 27.484375 19.1875 25 
Q 14.984375 22.515625 14.984375 16.5 
Q 14.984375 11.71875 18.140625 8.90625 
Q 21.296875 6.109375 26.703125 6.109375 
Q 34.1875 6.109375 38.703125 11.40625 
Q 43.21875 16.703125 43.21875 25.484375 
L 43.21875 27.484375 
z
M 52.203125 31.203125 
L 52.203125 0 
L 43.21875 0 
L 43.21875 8.296875 
Q 40.140625 3.328125 35.546875 0.953125 
Q 30.953125 -1.421875 24.3125 -1.421875 
Q 15.921875 -1.421875 10.953125 3.296875 
Q 6 8.015625 6 15.921875 
Q 6 25.140625 12.171875 29.828125 
Q 18.359375 34.515625 30.609375 34.515625 
L 43.21875 34.515625 
L 43.21875 35.40625 
Q 43.21875 41.609375 39.140625 45 
Q 35.0625 48.390625 27.6875 48.390625 
Q 23 48.390625 18.546875 47.265625 
Q 14.109375 46.140625 10.015625 43.890625 
L 10.015625 52.203125 
Q 14.9375 54.109375 19.578125 55.046875 
Q 24.21875 56 28.609375 56 
Q 40.484375 56 46.34375 49.84375 
Q 52.203125 43.703125 52.203125 31.203125 
z
" id="DejaVuSans-97"/>
       <path d="M 45.40625 46.390625 
L 45.40625 75.984375 
L 54.390625 75.984375 
L 54.390625 0 
L 45.40625 0 
L 45.40625 8.203125 
Q 42.578125 3.328125 38.25 0.953125 
Q 33.9375 -1.421875 27.875 -1.421875 
Q 17.96875 -1.421875 11.734375 6.484375 
Q 5.515625 14.40625 5.515625 27.296875 
Q 5.515625 40.1875 11.734375 48.09375 
Q 17.96875 56 27.875 56 
Q 33.9375 56 38.25 53.625 
Q 42.578125 51.265625 45.40625 46.390625 
z
M 14.796875 27.296875 
Q 14.796875 17.390625 18.875 11.75 
Q 22.953125 6.109375 30.078125 6.109375 
Q 37.203125 6.109375 41.296875 11.75 
Q 45.40625 17.390625 45.40625 27.296875 
Q 45.40625 37.203125 41.296875 42.84375 
Q 37.203125 48.484375 30.078125 48.484375 
Q 22.953125 48.484375 18.875 42.84375 
Q 14.796875 37.203125 14.796875 27.296875 
z
" id="DejaVuSans-100"/>
       <path d="M 54.890625 33.015625 
L 54.890625 0 
L 45.90625 0 
L 45.90625 32.71875 
Q 45.90625 40.484375 42.875 44.328125 
Q 39.84375 48.1875 33.796875 48.1875 
Q 26.515625 48.1875 22.3125 43.546875 
Q 18.109375 38.921875 18.109375 30.90625 
L 18.109375 0 
L 9.078125 0 
L 9.078125 54.6875 
L 18.109375 54.6875 
L 18.109375 46.1875 
Q 21.34375 51.125 25.703125 53.5625 
Q 30.078125 56 35.796875 56 
Q 45.21875 56 50.046875 50.171875 
Q 54.890625 44.34375 54.890625 33.015625 
z
" id="DejaVuSans-110"/>
       <path d="M 9.421875 54.6875 
L 18.40625 54.6875 
L 18.40625 0 
L 9.421875 0 
z
M 9.421875 75.984375 
L 18.40625 75.984375 
L 18.40625 64.59375 
L 9.421875 64.59375 
z
" id="DejaVuSans-105"/>
      </defs>
      <use xlink:href="#DejaVuSans-77"/>
      <use x="86.279297" xlink:href="#DejaVuSans-97"/>
      <use x="147.558594" xlink:href="#DejaVuSans-109"/>
      <use x="244.970703" xlink:href="#DejaVuSans-100"/>
      <use x="308.447266" xlink:href="#DejaVuSans-97"/>
      <use x="369.726562" xlink:href="#DejaVuSans-110"/>
      <use x="433.105469" xlink:href="#DejaVuSans-105"/>
     </g>
    </g>
    <g id="line2d_31">
     <path d="M 66.6 263.648062 
L 86.6 263.648062 
" style="fill:none;stroke:#ff7f0e;stroke-linecap:square;stroke-width:1.5;"/>
    </g>
    <g id="line2d_32"/>
    <g id="text_28">
     <!-- Sugeno -->
     <g transform="translate(94.6 267.148062)scale(0.1 -0.1)">
      <defs>
       <path d="M 8.5 21.578125 
L 8.5 54.6875 
L 17.484375 54.6875 
L 17.484375 21.921875 
Q 17.484375 14.15625 20.5 10.265625 
Q 23.53125 6.390625 29.59375 6.390625 
Q 36.859375 6.390625 41.078125 11.03125 
Q 45.3125 15.671875 45.3125 23.6875 
L 45.3125 54.6875 
L 54.296875 54.6875 
L 54.296875 0 
L 45.3125 0 
L 45.3125 8.40625 
Q 42.046875 3.421875 37.71875 1 
Q 33.40625 -1.421875 27.6875 -1.421875 
Q 18.265625 -1.421875 13.375 4.4375 
Q 8.5 10.296875 8.5 21.578125 
z
M 31.109375 56 
z
" id="DejaVuSans-117"/>
       <path d="M 45.40625 27.984375 
Q 45.40625 37.75 41.375 43.109375 
Q 37.359375 48.484375 30.078125 48.484375 
Q 22.859375 48.484375 18.828125 43.109375 
Q 14.796875 37.75 14.796875 27.984375 
Q 14.796875 18.265625 18.828125 12.890625 
Q 22.859375 7.515625 30.078125 7.515625 
Q 37.359375 7.515625 41.375 12.890625 
Q 45.40625 18.265625 45.40625 27.984375 
z
M 54.390625 6.78125 
Q 54.390625 -7.171875 48.1875 -13.984375 
Q 42 -20.796875 29.203125 -20.796875 
Q 24.46875 -20.796875 20.265625 -20.09375 
Q 16.0625 -19.390625 12.109375 -17.921875 
L 12.109375 -9.1875 
Q 16.0625 -11.328125 19.921875 -12.34375 
Q 23.78125 -13.375 27.78125 -13.375 
Q 36.625 -13.375 41.015625 -8.765625 
Q 45.40625 -4.15625 45.40625 5.171875 
L 45.40625 9.625 
Q 42.625 4.78125 38.28125 2.390625 
Q 33.9375 0 27.875 0 
Q 17.828125 0 11.671875 7.65625 
Q 5.515625 15.328125 5.515625 27.984375 
Q 5.515625 40.671875 11.671875 48.328125 
Q 17.828125 56 27.875 56 
Q 33.9375 56 38.28125 53.609375 
Q 42.625 51.21875 45.40625 46.390625 
L 45.40625 54.6875 
L 54.390625 54.6875 
z
" id="DejaVuSans-103"/>
      </defs>
      <use xlink:href="#DejaVuSans-83"/>
      <use x="63.476562" xlink:href="#DejaVuSans-117"/>
      <use x="126.855469" xlink:href="#DejaVuSans-103"/>
      <use x="190.332031" xlink:href="#DejaVuSans-101"/>
      <use x="251.855469" xlink:href="#DejaVuSans-110"/>
      <use x="315.234375" xlink:href="#DejaVuSans-111"/>
     </g>
    </g>
    <g id="line2d_33">
     <path d="M 66.6 278.326187 
L 86.6 278.326187 
" style="fill:none;stroke:#2ca02c;stroke-linecap:square;stroke-width:1.5;"/>
    </g>
    <g id="line2d_34"/>
    <g id="text_29">
     <!-- Tsukamoto -->
     <g transform="translate(94.6 281.826187)scale(0.1 -0.1)">
      <defs>
       <path d="M -0.296875 72.90625 
L 61.375 72.90625 
L 61.375 64.59375 
L 35.5 64.59375 
L 35.5 0 
L 25.59375 0 
L 25.59375 64.59375 
L -0.296875 64.59375 
z
" id="DejaVuSans-84"/>
       <path d="M 44.28125 53.078125 
L 44.28125 44.578125 
Q 40.484375 46.53125 36.375 47.5 
Q 32.28125 48.484375 27.875 48.484375 
Q 21.1875 48.484375 17.84375 46.4375 
Q 14.5 44.390625 14.5 40.28125 
Q 14.5 37.15625 16.890625 35.375 
Q 19.28125 33.59375 26.515625 31.984375 
L 29.59375 31.296875 
Q 39.15625 29.25 43.1875 25.515625 
Q 47.21875 21.78125 47.21875 15.09375 
Q 47.21875 7.46875 41.1875 3.015625 
Q 35.15625 -1.421875 24.609375 -1.421875 
Q 20.21875 -1.421875 15.453125 -0.5625 
Q 10.6875 0.296875 5.421875 2 
L 5.421875 11.28125 
Q 10.40625 8.6875 15.234375 7.390625 
Q 20.0625 6.109375 24.8125 6.109375 
Q 31.15625 6.109375 34.5625 8.28125 
Q 37.984375 10.453125 37.984375 14.40625 
Q 37.984375 18.0625 35.515625 20.015625 
Q 33.0625 21.96875 24.703125 23.78125 
L 21.578125 24.515625 
Q 13.234375 26.265625 9.515625 29.90625 
Q 5.8125 33.546875 5.8125 39.890625 
Q 5.8125 47.609375 11.28125 51.796875 
Q 16.75 56 26.8125 56 
Q 31.78125 56 36.171875 55.265625 
Q 40.578125 54.546875 44.28125 53.078125 
z
" id="DejaVuSans-115"/>
       <path d="M 9.078125 75.984375 
L 18.109375 75.984375 
L 18.109375 31.109375 
L 44.921875 54.6875 
L 56.390625 54.6875 
L 27.390625 29.109375 
L 57.625 0 
L 45.90625 0 
L 18.109375 26.703125 
L 18.109375 0 
L 9.078125 0 
z
" id="DejaVuSans-107"/>
      </defs>
      <use xlink:href="#DejaVuSans-84"/>
      <use x="44.583984" xlink:href="#DejaVuSans-115"/>
      <use x="96.683594" xlink:href="#DejaVuSans-117"/>
      <use x="160.0625" xlink:href="#DejaVuSans-107"/>
      <use x="216.222656" xlink:href="#DejaVuSans-97"/>
      <use x="277.501953" xlink:href="#DejaVuSans-109"/>
      <use x="374.914062" xlink:href="#DejaVuSans-111"/>
      <use x="436.095703" xlink:href="#DejaVuSans-116"/>
      <use x="475.304688" xlink:href="#DejaVuSans-111"/>
     </g>
    </g>
    <g id="line2d_35">
     <path d="M 66.6 293.004312 
L 86.6 293.004312 
" style="fill:none;stroke:#d62728;stroke-linecap:square;stroke-width:1.5;"/>
    </g>
    <g id="line2d_36"/>
    <g id="text_30">
     <!-- Larsen -->
     <g transform="translate(94.6 296.504312)scale(0.1 -0.1)">
      <defs>
       <path d="M 9.8125 72.90625 
L 19.671875 72.90625 
L 19.671875 8.296875 
L 55.171875 8.296875 
L 55.171875 0 
L 9.8125 0 
z
" id="DejaVuSans-76"/>
      </defs>
      <use xlink:href="#DejaVuSans-76"/>
      <use x="55.712891" xlink:href="#DejaVuSans-97"/>
      <use x="116.992188" xlink:href="#DejaVuSans-114"/>
      <use x="158.105469" xlink:href="#DejaVuSans-115"/>
      <use x="210.205078" xlink:href="#DejaVuSans-101"/>
      <use x="271.728516" xlink:href="#DejaVuSans-110"/>
     </g>
    </g>
   </g>
  </g>
 </g>
 <defs>
  <clipPath id="pa71fbee8cf">
   <rect height="266.112" width="357.12" x="57.6" y="41.472"/>
  </clipPath>
 </defs>
</svg>
